<svg width="24" height="24" viewBox="0 0 24 24" fill="none" xmlns="http://www.w3.org/2000/svg">
<g clip-path="url(#clip0_1_1562)">
<path d="M14.5 21.5002C14.372 21.5002 14.244 21.4512 14.146 21.3542C13.951 21.1592 13.951 20.8422 14.146 20.6472L22.793 12.0002L14.147 3.35423C13.952 3.15923 13.952 2.84223 14.147 2.64723C14.342 2.45223 14.659 2.45223 14.854 2.64723L23.854 11.6472C24.049 11.8422 24.049 12.1592 23.854 12.3542L14.854 21.3542C14.756 21.4512 14.628 21.5002 14.5 21.5002Z" fill="#2F70FE"/>
<path d="M23.5 12.5H0.5C0.224 12.5 0 12.276 0 12C0 11.724 0.224 11.5 0.5 11.5H23.5C23.776 11.5 24 11.724 24 12C24 12.276 23.776 12.5 23.5 12.5Z" fill="#2F70FE"/>
</g>
<defs>
<clipPath id="clip0_1_1562">
<rect width="24" height="24" fill="white"/>
</clipPath>
</defs>
</svg>
